<?xml version="1.0" encoding="utf-8"?>
<!-- Generator: Adobe Illustrator 14.0.0, SVG Export Plug-In . SVG Version: 6.00 Build 43363)  -->
<!DOCTYPE svg PUBLIC "-//W3C//DTD SVG 1.1//EN" "http://www.w3.org/Graphics/SVG/1.1/DTD/svg11.dtd">
<svg version="1.1" id="Laag_1" xmlns="http://www.w3.org/2000/svg" xmlns:xlink="http://www.w3.org/1999/xlink" x="0px" y="0px"
	 width="140px" height="60px" viewBox="0 0 140 60" enable-background="new 0 0 140 60" xml:space="preserve">
<g id="Laag_2">
	<g id="g4248" transform="matrix(0,-1,0.61069906,0,-595.04739,232.23104)" display="none">
		<path id="path3351-7" display="inline" fill="none" stroke="#000000" stroke-width="2" stroke-linejoin="round" d="
			M191.731,983.314v39.886"/>
		<path id="path3353-5" display="inline" fill="none" stroke="#000000" stroke-width="2" stroke-linejoin="round" d="
			M201.217,983.314h-19.988"/>
	</g>
	<path id="path3347" fill="none" stroke="#000000" stroke-width="2" stroke-linejoin="round" d="M33.151,44.547V3.574l19.943,39.975
		V2.546"/>
	
		<ellipse id="path3349" fill="none" stroke="#000000" stroke-width="2.0236" stroke-linejoin="round" cx="68.051" cy="23.546" rx="9.474" ry="19.989"/>
	<path id="path3355" fill="none" stroke="#000000" stroke-width="2" stroke-linejoin="round" d="M137.852,3.574
		c0,0-20.762,0-24.93,0c-3.055,0-4.984,2.169-4.984,4.997c0,3.331,0,34.979,0,34.979h29.914"/>
	<path id="path3357" fill="none" stroke="#000000" stroke-width="2" stroke-linejoin="round" d="M112.922,28.559h20.941"/>
	<path id="path3357-3" fill="none" stroke="#000000" stroke-width="2" stroke-linejoin="round" d="M112.922,18.563h19.943"/>
	<path id="path3349-6_3_" fill="none" stroke="#000000" stroke-width="2" stroke-linejoin="round" d="M2,49.227
		c0,0,8.715-8.168,4.276-18.68C3.715,25.309,2.176,40.643,9.79,42.6c7.613,1.959,13.616-2.553,15.301-2.979
		c1.978-0.5,3.875-0.5,5.438,0.563c1.563,1.063,0.179,2.727-2.125,2.25c-4.5-0.934-4.614-10.246-14.052-16.497
		c-7.563-5.25-6.701-6.51-6.75-9.813c0.125-3.875-7.121-3.887,0.63,4.861c7.124,6.627,22.683,6.202,22.963-1.736
		c0-3.813-1.718-10.25-9.957-12.968C15.484,4.719,11.043,5.236,7.477,7.437C4.606,9.241,4.751,12.17,6.313,11.42
		c2.938-1.875,4.227-4.804,2.668-10"/>
</g>
<g id="Laag_3">
	<path fill="#726F6A" d="M94.02,58.547c-0.521,0.604-1.584,0.604-2.027,0l-2.506-3.344v-2.656h7v2.656L94.02,58.547z"/>
	<path fill="#AF7500" d="M83.008,39.547h19.943v5l-6.465,10.656c-2.217-2.324-5.135-2.074-7,0l-6.479-10.656V39.547z"/>
	<path fill="#FFE05F" d="M83.008,3.574v40.973c0,0,1.219-4.5,3.238-4.5c2.021,0,2.205,4.5,2.205,4.5V3.558L83.008,3.574z"/>
	<path fill="#FFE05F" d="M102.951,3.574v40.973c0,0-1.217-4.5-3.238-4.5s-2.203,4.5-2.203,4.5V3.558L102.951,3.574z"/>
	<path fill="#FFCC00" d="M90.451,3.574v40.973c0,0,0.639-4.5,2.535-4.5s2.566,4.5,2.566,4.5V3.558L90.451,3.574z"/>
	<path id="path3351_3_" fill="none" stroke="#000000" stroke-width="2" stroke-linejoin="round" d="M89.486,3.573v40.974"/>
	<path id="path3351_2_" fill="none" stroke="#000000" stroke-width="2" stroke-linejoin="round" d="M96.486,3.574v40.973"/>
	<path id="path3353_1_" fill="none" stroke="#000000" stroke-width="2" stroke-linejoin="round" d="M83.008,3.574h19.943"/>
</g>
</svg>
