<?xml version="1.0" encoding="UTF-8" standalone="no"?>
<svg
   xmlns:dc="http://purl.org/dc/elements/1.1/"
   xmlns:cc="http://creativecommons.org/ns#"
   xmlns:rdf="http://www.w3.org/1999/02/22-rdf-syntax-ns#"
   xmlns:svg="http://www.w3.org/2000/svg"
   xmlns="http://www.w3.org/2000/svg"
   xmlns:sodipodi="http://sodipodi.sourceforge.net/DTD/sodipodi-0.dtd"
   xmlns:inkscape="http://www.inkscape.org/namespaces/inkscape"
   viewBox="0 0 50 50"
   version="1.1"
   id="svg3691"
   sodipodi:docname="settings.svg"
   inkscape:version="0.92.1 r15371">
  <metadata
     id="metadata3695">
    <rdf:RDF>
      <cc:Work
         rdf:about="">
        <dc:format>image/svg+xml</dc:format>
        <dc:type
           rdf:resource="http://purl.org/dc/dcmitype/StillImage" />
        <dc:title>Editable</dc:title>
      </cc:Work>
    </rdf:RDF>
  </metadata>
  <sodipodi:namedview
     pagecolor="#ffffff"
     bordercolor="#666666"
     borderopacity="1"
     objecttolerance="10"
     gridtolerance="10"
     guidetolerance="10"
     inkscape:pageopacity="0"
     inkscape:pageshadow="2"
     inkscape:window-width="2560"
     inkscape:window-height="1361"
     id="namedview3693"
     showgrid="false"
     inkscape:zoom="16"
     inkscape:cx="47.317003"
     inkscape:cy="17.304797"
     inkscape:window-x="-9"
     inkscape:window-y="-9"
     inkscape:window-maximized="1"
     inkscape:current-layer="svg3691"
     showguides="false"
     inkscape:snap-global="false" />
  <defs
     id="defs3682">
    <style
       id="style3680">.cls-1{fill:#ebecec;}.cls-2{fill:none;stroke:#ebecec;stroke-miterlimit:10;stroke-width:2px;}</style>
  </defs>
  <title
     id="title3684">Editable</title>
  <path
     style="fill:#000000;stroke:none;stroke-width:1px;stroke-linecap:butt;stroke-linejoin:miter;stroke-opacity:1;fill-opacity:1"
     d="M 23 10 L 22.123047 14.384766 A 11 11 0 0 0 19.539062 15.466797 L 15.806641 12.978516 L 12.978516 15.806641 L 15.462891 19.535156 A 11 11 0 0 0 14.396484 22.121094 L 10 23 L 10 27 L 14.384766 27.876953 A 11 11 0 0 0 15.466797 30.460938 L 12.978516 34.193359 L 15.806641 37.021484 L 19.535156 34.537109 A 11 11 0 0 0 22.121094 35.603516 L 23 40 L 27 40 L 27.876953 35.615234 A 11 11 0 0 0 30.460938 34.533203 L 34.193359 37.021484 L 37.021484 34.193359 L 34.537109 30.464844 A 11 11 0 0 0 35.603516 27.878906 L 40 27 L 40 23 L 35.615234 22.123047 A 11 11 0 0 0 34.533203 19.539062 L 37.021484 15.806641 L 34.193359 12.978516 L 30.464844 15.462891 A 11 11 0 0 0 27.878906 14.396484 L 27 10 L 23 10 z M 25 18 A 7 7 0 0 1 32 25 A 7 7 0 0 1 25 32 A 7 7 0 0 1 18 25 A 7 7 0 0 1 25 18 z "
     id="path3703" />
</svg>
